<svg fill="none" viewBox="0 0 145 63" height="63" width="145" xmlns="http://www.w3.org/2000/svg"><path fill="#008CD0" d="M7.63278 35.5664H10.7853L17.4455 51.215H13.8694L12.4494 47.7297H5.88123L4.46015 51.215H0.972656L7.63278 35.5664ZM11.2278 44.7114L9.16587 39.6708L7.10113 44.7114H11.2278Z" clip-rule="evenodd" fill-rule="evenodd"/><path fill="#008CD0" d="M19.8457 35.6753H31.5654V38.7153H23.2407V41.8678H30.5673V44.9106H23.2407V48.173H31.6774V51.2113H19.8457V35.6753Z" clip-rule="evenodd" fill-rule="evenodd"/><path fill="#008CD0" d="M36.0469 35.6753H43.1495C45.1245 35.6753 46.6576 36.2292 47.678 37.2507C48.1263 37.7237 48.4752 38.2817 48.7041 38.8918C48.9331 39.502 49.0374 40.1518 49.011 40.8029V40.8469C49.061 41.904 48.762 42.9481 48.1601 43.8185C47.5582 44.6889 46.6868 45.3372 45.6801 45.6635L49.4775 51.2102H45.4828L42.1531 46.2381H39.4658V51.2102H36.0469V35.6753ZM42.9282 43.222C44.5934 43.222 45.5475 42.3343 45.5475 41.0241V40.9801C45.5475 39.5144 44.5243 38.761 42.8603 38.761H39.4636V43.222H42.9282Z" clip-rule="evenodd" fill-rule="evenodd"/><path fill="#008CD0" d="M51.8555 43.4893V43.4452C51.8555 39.0271 55.3391 35.4092 60.1345 35.4092C64.93 35.4092 68.3706 38.9825 68.3706 43.4012V43.4452C68.3706 47.8634 64.8854 51.4802 60.0905 51.4802C55.2956 51.4802 51.8544 47.9069 51.856 43.4898M64.7968 43.4898V43.4458C64.8186 42.8135 64.7131 42.1833 64.4865 41.5926C64.26 41.0019 63.917 40.4628 63.478 40.0072C63.039 39.5517 62.5129 39.189 61.9309 38.9408C61.349 38.6926 60.7231 38.5639 60.0905 38.5623C59.4625 38.5598 58.8405 38.6846 58.2621 38.9292C57.6837 39.1738 57.1609 39.5332 56.7252 39.9855C56.2896 40.4378 55.9501 40.9737 55.7274 41.5609C55.5047 42.1481 55.4033 42.7743 55.4294 43.4018V43.4458C55.4074 44.078 55.5127 44.7082 55.7392 45.2989C55.9656 45.8896 56.3085 46.4288 56.7474 46.8843C57.1863 47.3399 57.7123 47.7025 58.2942 47.9508C58.8761 48.199 59.5019 48.3277 60.1345 48.3293C60.7626 48.3319 61.3846 48.2071 61.9631 47.9625C62.5416 47.718 63.0646 47.3587 63.5003 46.9063C63.9361 46.454 64.2756 45.9181 64.4984 45.3309C64.7213 44.7436 64.8228 44.1174 64.7968 43.4898Z" clip-rule="evenodd" fill-rule="evenodd"/><path fill="#008CD0" d="M71.8516 35.6753H75.0041L82.2851 45.2411V35.6753H85.6589V51.2113H82.7521L75.2254 41.334V51.2113H71.8516V35.6753Z" clip-rule="evenodd" fill-rule="evenodd"/><path fill="#008CD0" d="M90.7246 35.6753H102.445V38.7153H94.1212V41.8678H101.446V44.9106H94.1212V48.173H102.557V51.2113H90.7246V35.6753Z" clip-rule="evenodd" fill-rule="evenodd"/><path fill="#008CD0" d="M106.928 35.6753H114.032C116.007 35.6753 117.54 36.2292 118.561 37.2507C119.009 37.724 119.357 38.2821 119.586 38.8922C119.814 39.5022 119.919 40.1519 119.892 40.8029V40.8469C119.942 41.9038 119.643 42.9478 119.042 43.8181C118.44 44.6885 117.569 45.3369 116.562 45.6635L120.359 51.2124H116.362L113.033 46.2403H110.344V51.2102H106.926L106.928 35.6753ZM113.809 43.222C115.475 43.222 116.429 42.3343 116.429 41.0241V40.9801C116.429 39.5144 115.408 38.761 113.744 38.761H110.345V43.222H113.809Z" clip-rule="evenodd" fill-rule="evenodd"/><path fill="#008CD0" d="M122.289 43.4893V43.4452C122.289 39.0271 125.774 35.4092 130.568 35.4092C135.362 35.4092 138.804 38.9825 138.804 43.4012V43.4452C138.804 47.8634 135.319 51.4802 130.524 51.4802C125.729 51.4802 122.289 47.9057 122.289 43.4893ZM135.23 43.4893V43.4452C135.252 42.813 135.146 42.1827 134.92 41.592C134.693 41.0013 134.35 40.4622 133.911 40.0066C133.472 39.5511 132.946 39.1885 132.364 38.9402C131.782 38.692 131.156 38.5633 130.524 38.5618C129.896 38.5594 129.274 38.6843 128.695 38.929C128.117 39.1737 127.594 39.533 127.159 39.9853C126.723 40.4376 126.384 40.9734 126.161 41.5605C125.938 42.1476 125.836 42.7738 125.862 43.4012V43.4452C125.841 44.0774 125.946 44.7075 126.173 45.2982C126.399 45.8888 126.742 46.4279 127.181 46.8834C127.62 47.3389 128.146 47.7016 128.727 47.9499C129.309 48.1982 129.935 48.327 130.568 48.3287C131.196 48.3313 131.818 48.2065 132.396 47.962C132.975 47.7174 133.498 47.3581 133.933 46.9058C134.369 46.4535 134.709 45.9175 134.931 45.3303C135.154 44.7431 135.256 44.1168 135.23 43.4893Z" clip-rule="evenodd" fill-rule="evenodd"/><path fill="#008CD0" d="M46.5475 56.3887H45.7695V62.1114H46.5475V56.3887Z"/><path fill="#008CD0" d="M49.7858 57.9395H49.0078V62.1124H49.7858V57.9395Z"/><path fill="#008CD0" d="M49.4 56.4352C49.3008 56.4352 49.2038 56.4646 49.1214 56.5197C49.0389 56.5748 48.9746 56.6532 48.9366 56.7448C48.8987 56.8364 48.8887 56.9373 48.9081 57.0346C48.9274 57.1319 48.9752 57.2212 49.0454 57.2914C49.1155 57.3615 49.2048 57.4093 49.3021 57.4287C49.3994 57.448 49.5003 57.4381 49.5919 57.4001C49.6836 57.3622 49.7619 57.2979 49.817 57.2154C49.8721 57.1329 49.9016 57.0359 49.9016 56.9367C49.9031 56.8705 49.8912 56.8046 49.8665 56.743C49.8418 56.6815 49.8049 56.6256 49.758 56.5787C49.7112 56.5318 49.6553 56.4949 49.5937 56.4703C49.5322 56.4456 49.4663 56.4337 49.4 56.4352Z" clip-rule="evenodd" fill-rule="evenodd"/><path fill="#008CD0" d="M53.9629 57.1138C54.134 57.1184 54.2996 57.1749 54.4377 57.276L54.6049 57.3724L55.0006 56.78L54.8462 56.6685C54.5987 56.4749 54.2938 56.3692 53.9796 56.3682C53.1253 56.3682 52.6533 56.8965 52.6533 57.8556V57.9871H51.8848V58.7188H52.6538V62.1138H53.4234V58.7188H54.6601V57.9871H53.4223V57.8556C53.4223 57.2013 53.7121 57.1166 53.964 57.1166" clip-rule="evenodd" fill-rule="evenodd"/><path fill="#008CD0" d="M58.8474 57.8933C58.5666 57.8889 58.2879 57.9414 58.0281 58.0477C57.7682 58.1541 57.5326 58.3119 57.3354 58.5118C57.1383 58.7117 56.9837 58.9495 56.881 59.2108C56.7784 59.4721 56.7297 59.7516 56.738 60.0322C56.7266 60.3132 56.7731 60.5935 56.8746 60.8557C56.9762 61.118 57.1306 61.3565 57.3283 61.5565C57.526 61.7565 57.7627 61.9136 58.0238 62.0182C58.2848 62.1228 58.5646 62.1725 58.8457 62.1644C59.1841 62.1731 59.5201 62.1056 59.8288 61.9668C60.1375 61.8279 60.411 61.6214 60.629 61.3624L60.7483 61.2058L60.1648 60.7405L60.0388 60.9077C59.8866 61.0693 59.7016 61.1965 59.4962 61.2809C59.2908 61.3653 59.0698 61.4048 58.8479 61.397C58.5519 61.409 58.2609 61.3172 58.0254 61.1375C57.7898 60.9578 57.6244 60.7015 57.5578 60.4128H60.8859L60.9032 60.2289C60.9499 59.9286 60.9322 59.6218 60.8513 59.3289C60.7704 59.0359 60.6282 58.7635 60.434 58.5297C60.2292 58.3186 59.9822 58.1529 59.7091 58.0436C59.436 57.9344 59.1429 57.8839 58.849 57.8956M57.5589 59.6789C57.6165 59.3816 57.7775 59.1143 58.0133 58.9243C58.2492 58.7344 58.5446 58.6341 58.8474 58.6412C59.0015 58.6214 59.158 58.6328 59.3077 58.6746C59.4574 58.7163 59.5972 58.7877 59.7188 58.8845C59.8405 58.9812 59.9415 59.1013 60.0159 59.2378C60.0903 59.3742 60.1365 59.5242 60.152 59.6789H57.5589Z" clip-rule="evenodd" fill-rule="evenodd"/><path fill="#008CD0" d="M63.6402 59.6335C63.541 59.6335 63.4441 59.6629 63.3616 59.718C63.2791 59.7731 63.2148 59.8515 63.1768 59.9431C63.1389 60.0348 63.129 60.1356 63.1483 60.2329C63.1677 60.3302 63.2154 60.4195 63.2856 60.4897C63.3557 60.5598 63.4451 60.6076 63.5424 60.627C63.6397 60.6463 63.7405 60.6364 63.8322 60.5984C63.9238 60.5605 64.0021 60.4962 64.0572 60.4137C64.1124 60.3312 64.1418 60.2342 64.1418 60.135C64.1436 60.0687 64.1318 60.0027 64.1072 59.941C64.0826 59.8794 64.0457 59.8234 63.9988 59.7765C63.9519 59.7295 63.8959 59.6926 63.8342 59.6681C63.7726 59.6435 63.7066 59.6317 63.6402 59.6335Z" clip-rule="evenodd" fill-rule="evenodd"/><path fill="#008CD0" d="M70.1866 60.8487L69.193 57.9536H68.6357L67.6354 60.8515L66.6456 57.9536H65.8047L67.2876 62.1137H67.982L68.6418 60.3399L68.9166 59.4828L69.1846 60.3399L69.8433 62.1137H70.5366L72.0101 57.9558H71.168L70.1866 60.8487Z" clip-rule="evenodd" fill-rule="evenodd"/><path fill="#008CD0" d="M77.1907 58.3988C76.8223 58.0771 76.3483 57.9023 75.8593 57.9078C75.2937 57.9078 74.7512 58.1325 74.3512 58.5325C73.9513 58.9325 73.7266 59.4749 73.7266 60.0406C73.7266 60.6062 73.9513 61.1487 74.3512 61.5486C74.7512 61.9486 75.2937 62.1733 75.8593 62.1733C76.3506 62.181 76.8265 62.0017 77.1907 61.6717V62.1114H77.9708V57.9535H77.1907V58.3988ZM75.8593 61.4026C75.589 61.4029 75.3246 61.323 75.0997 61.1731C74.8747 61.0232 74.6993 60.8098 74.5957 60.5602C74.492 60.3105 74.4647 60.0357 74.5172 59.7705C74.5698 59.5054 74.6998 59.2617 74.8908 59.0705C75.0818 58.8792 75.3253 58.7489 75.5904 58.696C75.8555 58.6432 76.1304 58.6701 76.3802 58.7735C76.63 58.8769 76.8435 59.052 76.9937 59.2768C77.1439 59.5015 77.2241 59.7658 77.2241 60.0361C77.2326 60.2177 77.2031 60.399 77.1375 60.5685C77.072 60.738 76.9718 60.892 76.8433 61.0206C76.7149 61.1492 76.561 61.2496 76.3916 61.3153C76.2222 61.3811 76.0409 61.4108 75.8593 61.4026Z" clip-rule="evenodd" fill-rule="evenodd"/><path fill="#008CD0" d="M82.4765 61.2865C82.3245 61.3644 82.1578 61.4092 81.9872 61.418C81.6077 61.418 81.499 61.2703 81.499 60.7554V58.6717H82.7741V57.9545H81.499V56.7998L80.7277 56.8801V57.9528H79.9297V58.67H80.7277V60.7565C80.7277 61.6928 81.1513 62.167 81.9872 62.167C82.2643 62.1582 82.5357 62.0861 82.7808 61.9564L82.9552 61.8733L82.6682 61.1962L82.4765 61.2865Z" clip-rule="evenodd" fill-rule="evenodd"/><path fill="#008CD0" d="M86.9499 57.8931C86.6692 57.8887 86.3904 57.9412 86.1305 58.0475C85.8706 58.1538 85.6349 58.3117 85.4376 58.5115C85.2404 58.7114 85.0857 58.9492 84.9829 59.2105C84.8801 59.4718 84.8313 59.7513 84.8395 60.032C84.8284 60.3131 84.8752 60.5935 84.977 60.8558C85.0789 61.1181 85.2335 61.3566 85.4315 61.5566C85.6294 61.7565 85.8663 61.9137 86.1276 62.0182C86.3888 62.1227 86.6687 62.1724 86.9499 62.1641C87.2875 62.1726 87.6226 62.1049 87.9303 61.9661C88.2381 61.8273 88.5107 61.6208 88.7277 61.3622L88.8486 61.2056L88.2651 60.7392L88.1392 60.9063C87.9873 61.068 87.8026 61.1952 87.5975 61.2796C87.3924 61.364 87.1716 61.4036 86.9499 61.3956C86.6538 61.4076 86.3628 61.3158 86.127 61.1361C85.8913 60.9565 85.7257 60.7002 85.6587 60.4115H88.9868L89.0058 60.2276C89.0523 59.9271 89.0344 59.6203 88.9532 59.3273C88.872 59.0343 88.7294 58.762 88.5349 58.5284C88.3301 58.3172 88.0831 58.1516 87.81 58.0423C87.5369 57.933 87.2439 57.8826 86.9499 57.8942M85.6598 59.6775C85.7175 59.3799 85.8787 59.1124 86.1149 58.9224C86.3511 58.7325 86.6469 58.6324 86.9499 58.6399C87.104 58.62 87.2606 58.6313 87.4102 58.6731C87.5599 58.7148 87.6996 58.7862 87.8212 58.883C87.9427 58.9798 88.0436 59.1 88.1179 59.2364C88.1921 59.3729 88.2382 59.5229 88.2534 59.6775H85.6598Z" clip-rule="evenodd" fill-rule="evenodd"/><path fill="#008CD0" d="M93.2054 57.9161H93.2015C92.8206 57.9064 92.4479 58.028 92.146 58.2605L92.1393 57.9534H91.3887V62.1119H92.1689V59.7211C92.1676 59.5841 92.1934 59.4482 92.2448 59.3212C92.2963 59.1942 92.3722 59.0786 92.4684 58.981C92.5647 58.8835 92.6792 58.8059 92.8055 58.7527C92.9317 58.6995 93.0673 58.6718 93.2043 58.6712C93.3916 58.6686 93.5758 58.7182 93.7365 58.8144L93.9176 58.9259L94.281 58.266L94.1138 58.1657C93.8411 57.9988 93.5268 57.9123 93.2071 57.9161" clip-rule="evenodd" fill-rule="evenodd"/><path fill="#008CD0" d="M96.5484 59.6334C96.4492 59.6334 96.3523 59.6629 96.2698 59.718C96.1873 59.7731 96.123 59.8514 96.0851 59.9431C96.0471 60.0347 96.0372 60.1356 96.0565 60.2329C96.0759 60.3301 96.1237 60.4195 96.1938 60.4897C96.2639 60.5598 96.3533 60.6076 96.4506 60.6269C96.5479 60.6463 96.6487 60.6363 96.7404 60.5984C96.832 60.5604 96.9104 60.4961 96.9655 60.4137C97.0206 60.3312 97.05 60.2342 97.05 60.135C97.0516 60.0687 97.0397 60.0028 97.0151 59.9412C96.9905 59.8796 96.9536 59.8237 96.9067 59.7768C96.8598 59.7299 96.8038 59.693 96.7423 59.6684C96.6807 59.6437 96.6147 59.6318 96.5484 59.6334Z" clip-rule="evenodd" fill-rule="evenodd"/><path fill="#FFBE00" d="M57.2814 30.4345C54.2755 30.4349 51.3371 29.5438 48.8376 27.8741C46.3381 26.2043 44.3899 23.8309 43.2394 21.0539C42.0888 18.2769 41.7876 15.2211 42.3739 12.2729C42.9601 9.32472 44.4074 6.61658 46.5328 4.49097C48.6581 2.36536 51.3661 0.917756 54.3142 0.331212C57.2624 -0.255331 60.3182 0.0455361 63.0953 1.19577C65.8724 2.346 68.2461 4.29393 69.9161 6.79322C71.5861 9.29251 72.4775 12.2309 72.4775 15.2368C72.4728 19.266 70.8703 23.1289 68.0215 25.9782C65.1727 28.8276 61.3101 30.4308 57.2809 30.4362M57.2809 1.42281C54.5485 1.42292 51.8775 2.23328 49.6057 3.75142C47.3338 5.26956 45.5632 7.42729 44.5177 9.95175C43.4722 12.4762 43.1987 15.254 43.7319 17.9339C44.2652 20.6137 45.5811 23.0753 47.5133 25.0073C49.4455 26.9392 51.9072 28.2549 54.5871 28.7878C57.2671 29.3206 60.0448 29.0469 62.5692 28.001C65.0935 26.9552 67.251 25.1843 68.7689 22.9123C70.2867 20.6403 71.0968 17.9692 71.0966 15.2368C71.0926 11.574 69.6358 8.06242 67.0458 5.47245C64.4558 2.88247 60.9442 1.42568 57.2814 1.4217" clip-rule="evenodd" fill-rule="evenodd"/><path fill="#008CD0" d="M82.4957 30.4345C79.4899 30.4348 76.5514 29.5436 74.052 27.8738C71.5526 26.204 69.6045 23.8305 68.4541 21.0535C67.3036 18.2765 67.0025 15.2207 67.5888 12.2726C68.175 9.32441 69.6224 6.61633 71.7478 4.49078C73.8732 2.36523 76.5812 0.917669 79.5293 0.33117C82.4774 -0.255328 85.5332 0.0455757 88.3103 1.19582C91.0874 2.34607 93.461 4.294 95.131 6.79328C96.801 9.29256 97.6923 12.2309 97.6923 15.2368C97.6885 19.2663 96.0863 23.1297 93.2373 25.9792C90.3883 28.8287 86.5252 30.4316 82.4957 30.4362M82.4957 1.42281C79.7633 1.42292 77.0923 2.23328 74.8205 3.75142C72.5487 5.26956 70.778 7.42729 69.7325 9.95175C68.687 12.4762 68.4136 15.254 68.9468 17.9339C69.48 20.6137 70.7959 23.0753 72.7281 25.0073C74.6603 26.9392 77.1221 28.2549 79.802 28.7878C82.4819 29.3206 85.2597 29.0469 87.784 28.001C90.3083 26.9552 92.4658 25.1843 93.9837 22.9123C95.5016 20.6403 96.3116 17.9692 96.3114 15.2368C96.3071 11.574 94.8502 8.0625 92.2601 5.47258C89.6701 2.88265 86.1585 1.42583 82.4957 1.4217" clip-rule="evenodd" fill-rule="evenodd"/><path fill="#008CD0" d="M90.1094 10.4875C89.9363 10.5224 89.7656 10.5686 89.5984 10.6257C88.7426 10.9398 87.9132 11.3214 87.1179 11.767C85.6874 12.5221 84.7149 12.6776 83.7318 12.3288C83.0922 12.0852 82.4703 11.7975 81.8705 11.4678L81.5033 11.2772C80.5585 10.7184 79.4801 10.4261 78.3825 10.4312C77.4142 10.5093 76.4778 10.8134 75.6484 11.319V12.8392L76.0196 12.6459C76.2425 12.5277 76.4654 12.4101 76.6917 12.2948C77.2575 11.9794 77.8927 11.8092 78.5404 11.7994C79.1881 11.7897 79.8282 11.9408 80.4032 12.239C80.9605 12.5177 81.5111 12.8103 82.0606 13.1051L82.1614 13.1575C82.9459 13.6034 83.8323 13.8388 84.7347 13.8406C85.637 13.8425 86.5245 13.6108 87.3108 13.168L87.8836 12.8621C88.2498 12.6665 88.6142 12.472 88.9815 12.2825C89.3381 12.0978 89.7178 11.9616 90.1105 11.8774L90.1094 10.4875Z" clip-rule="evenodd" fill-rule="evenodd"/><path fill="#008CD0" d="M90.1066 13.7121C89.9337 13.7473 89.7631 13.7929 89.5956 13.8486C88.7401 14.1637 87.9107 14.5457 87.1151 14.9911C85.6846 15.7445 84.7121 15.9 83.7291 15.5528C83.0831 15.3066 82.4549 15.0163 81.8488 14.684L81.4999 14.5018C80.6254 13.939 79.6058 13.6434 78.5658 13.651C77.5259 13.6586 76.5107 13.9692 75.6445 14.5447V16.0638L76.0157 15.8693C76.2386 15.7529 76.4615 15.6347 76.6878 15.5194C77.2533 15.2036 77.8883 15.0332 78.5359 15.0235C79.1836 15.0138 79.8234 15.165 80.3982 15.4636C80.9761 15.7518 81.5484 16.0566 82.1575 16.382C82.9419 16.8279 83.8283 17.0634 84.7306 17.0655C85.6328 17.0677 86.5203 16.8365 87.3068 16.3943L87.8257 16.1157C88.2091 15.9106 88.5925 15.7038 88.9776 15.5082C89.3342 15.3235 89.7139 15.1873 90.1066 15.1031V13.7121Z" clip-rule="evenodd" fill-rule="evenodd"/><path fill="#008CD0" d="M90.11 16.9347C89.9369 16.9698 89.7662 17.016 89.599 17.0729C88.7432 17.3868 87.9138 17.7683 87.1185 18.2137C85.6879 18.9688 84.7143 19.1215 83.7324 18.7771C83.0842 18.5291 82.4537 18.2369 81.8454 17.9027L81.5033 17.7244C80.5572 17.1689 79.4796 16.8768 78.3825 16.8784C77.4143 16.9568 76.478 17.2609 75.6484 17.7662V19.2881L76.0196 19.0936C76.2425 18.9755 76.4654 18.8579 76.6917 18.742C77.2577 18.4272 77.8928 18.2574 78.5404 18.2477C79.188 18.238 79.828 18.3887 80.4032 18.6863C80.9382 18.9515 81.4693 19.2374 81.9987 19.5222L82.1609 19.608C82.9454 20.0536 83.8319 20.2888 84.7341 20.2907C85.6364 20.2925 86.5238 20.061 87.3102 19.6186L87.829 19.34C88.2124 19.1349 88.5958 18.9298 88.9809 18.7325C89.3378 18.5484 89.7174 18.4121 90.11 18.3274V16.9347Z" clip-rule="evenodd" fill-rule="evenodd"/><path fill="#FFBE00" d="M63.735 11.0864H49.2734V12.6073H63.735V11.0864Z"/><path fill="#FFBE00" d="M63.735 14.3101H49.2734V15.8309H63.735V14.3101Z"/><path fill="#FFBE00" d="M63.735 17.5342H49.2734V19.055H63.735V17.5342Z"/><path fill="#008CD0" d="M139.647 39.2386V36.8122H138.781V36.3179H141.102V36.8122H140.238V39.2386H139.647Z"/><path fill="#008CD0" d="M141.477 39.2386V36.3179H142.359L142.889 38.3102L143.413 36.3179H144.298V39.2386H143.75V36.9398L143.17 39.2386H142.603L142.025 36.9398V39.2386H141.477Z"/></svg>